<?xml version="1.0" standalone="no"?>
<!DOCTYPE svg PUBLIC "-//W3C//DTD SVG 20010904//EN"
 "http://www.w3.org/TR/2001/REC-SVG-20010904/DTD/svg10.dtd">
<svg version="1.0" xmlns="http://www.w3.org/2000/svg"
 width="1024.000000pt" height="1024.000000pt" viewBox="0 0 1024.000000 1024.000000"
 preserveAspectRatio="xMidYMid meet">
<metadata>
Created by potrace 1.11, written by Peter Selinger 2001-2013
</metadata>
<g transform="translate(0.000000,1024.000000) scale(0.100000,-0.100000)"
fill="#000000" stroke="none">
<path d="M0 5120 l0 -5120 5120 0 5120 0 0 5120 0 5120 -5120 0 -5120 0 0
-5120z m3760 2917 c266 -55 455 -126 615 -232 86 -56 245 -217 300 -303 65
-101 129 -240 159 -344 45 -157 58 -252 63 -480 7 -297 -12 -455 -83 -668
-112 -336 -331 -574 -624 -676 -35 -13 -58 -25 -50 -28 8 -2 49 -14 90 -26
299 -87 550 -312 694 -621 156 -335 209 -774 150 -1238 -43 -335 -129 -563
-295 -781 -100 -131 -225 -232 -388 -311 -157 -77 -269 -112 -471 -145 -93
-16 -205 -18 -988 -21 l-884 -4 6 53 c14 133 39 658 58 1253 17 513 17 2787 0
3300 -19 584 -42 1077 -58 1238 l-5 58 818 -4 c689 -3 830 -7 893 -20z m2736
-39 c-15 -160 -39 -669 -57 -1218 -5 -173 -13 -785 -16 -1360 -6 -1038 4
-1826 31 -2475 l11 -280 868 -3 867 -2 0 -250 0 -250 -1257 0 -1256 0 6 98
c94 1432 99 4013 12 5507 -8 138 -15 260 -15 273 l0 22 406 0 406 0 -6 -62z"/>
<path d="M2835 7568 c-10 -33 -36 -914 -50 -1706 l-6 -334 418 4 c387 4 424 6
494 25 267 74 392 228 456 564 14 77 18 148 18 384 0 325 -12 437 -66 599 -43
130 -85 202 -164 282 -163 165 -287 194 -823 194 -209 0 -274 -3 -277 -12z"/>
<path d="M2780 4868 c0 -482 28 -1744 46 -2097 l7 -123 411 5 c308 4 428 9
481 20 358 76 539 320 611 822 22 153 25 574 6 715 -42 294 -121 481 -261 620
-91 90 -181 140 -319 178 -97 26 -98 26 -539 30 l-443 3 0 -173z"/>
</g>
</svg>
